<?xml version="1.0" encoding="UTF-8" standalone="no"?>
<!-- Created with Inkscape (http://www.inkscape.org/) -->

<svg
   width="600"
   height="72"
   viewBox="0 0 600 72"
   version="1.1"
   id="svg6007"
   inkscape:version="1.2.2 (b0a84865, 2022-12-01)"
   sodipodi:docname="ghost.svg"
   xmlns:inkscape="http://www.inkscape.org/namespaces/inkscape"
   xmlns:sodipodi="http://sodipodi.sourceforge.net/DTD/sodipodi-0.dtd"
   xmlns="http://www.w3.org/2000/svg"
   xmlns:svg="http://www.w3.org/2000/svg">
  <sodipodi:namedview
     id="namedview6009"
     pagecolor="#505050"
     bordercolor="#ffffff"
     borderopacity="1"
     inkscape:showpageshadow="0"
     inkscape:pageopacity="0"
     inkscape:pagecheckerboard="1"
     inkscape:deskcolor="#505050"
     inkscape:document-units="px"
     showgrid="false"
     inkscape:zoom="1.7152542"
     inkscape:cx="380.70158"
     inkscape:cy="167.03063"
     inkscape:window-width="2560"
     inkscape:window-height="1268"
     inkscape:window-x="-1"
     inkscape:window-y="25"
     inkscape:window-maximized="0"
     inkscape:current-layer="layer1" />
  <defs
     id="defs6004" />
  <g
     inkscape:label="Layer 1"
     inkscape:groupmode="layer"
     id="layer1">
    <g
       aria-label="SREDevOps"
       transform="matrix(0.38764405,0,0,0.38764405,-6.2664045,-177.66535)"
       id="text177"
       style="font-size:186.667px;white-space:pre;shape-inside:url(#rect179);display:inline;fill:#ffffff;stroke:none;stroke-width:6.64096;stroke-linecap:square;stroke-linejoin:miter;stroke-miterlimit:1;stroke-dasharray:none;paint-order:stroke fill markers">
      <path
         d="m 59.873287,595.13364 v -3.54668 h 57.306773 q 16.80003,0 16.80003,-16.80003 V 558.5469 q 0,-13.81336 -12.32002,-16.24003 L 79.286656,533.72019 Q 59.873287,529.80018 59.873287,507.58681 v -9.70668 q 0,-26.88005 26.880049,-26.88005 h 46.666754 l 5.78667,4.66667 v 3.54668 H 85.820001 q -16.986698,0 -16.986698,16.80003 v 13.06669 q 0,14.00002 12.320023,16.42669 l 42.373414,8.40002 q 19.41337,3.92001 19.41337,26.13338 v 12.88002 q 0,26.88005 -26.88005,26.88005 H 65.846631 Z"
         style="font-weight:200;font-family:Oxanium;-inkscape-font-specification:'Oxanium, Ultra-Light';text-align:center;text-anchor:middle;stroke:none;stroke-width:6.64096;stroke-linecap:square;stroke-linejoin:miter;stroke-miterlimit:1;stroke-dasharray:none;paint-order:stroke fill markers"
         id="path2990" />
      <path
         d="M 172.80661,599.80031 V 471.00008 h 59.92011 q 26.88005,0 26.88005,26.88005 v 20.16003 q 0,24.82671 -22.77338,26.69338 l 26.50672,52.45343 -1.30667,2.61334 h -7.28001 l -27.81339,-54.8801 h -45.17341 v 54.8801 z m 8.96002,-63.09345 h 52.08009 q 16.80003,0 16.80003,-16.98669 v -23.70671 q 0,-16.80003 -16.80003,-16.80003 h -52.08009 z"
         style="font-weight:200;font-family:Oxanium;-inkscape-font-specification:'Oxanium, Ultra-Light';text-align:center;text-anchor:middle;stroke:none;stroke-width:6.64096;stroke-linecap:square;stroke-linejoin:miter;stroke-miterlimit:1;stroke-dasharray:none;paint-order:stroke fill markers"
         id="path2992" />
      <path
         d="M 291.33984,599.80031 V 471.00008 h 81.57349 v 8.21335 h -72.61347 v 48.16008 h 67.01346 v 8.21335 h -67.01346 v 56.0001 h 72.61347 v 8.21335 z"
         style="font-weight:200;font-family:Oxanium;-inkscape-font-specification:'Oxanium, Ultra-Light';text-align:center;text-anchor:middle;stroke:none;stroke-width:6.64096;stroke-linecap:square;stroke-linejoin:miter;stroke-miterlimit:1;stroke-dasharray:none;paint-order:stroke fill markers"
         id="path2994" />
      <path
         d="M 399.97983,599.80031 V 471.00008 h 51.33342 q 42.93342,0 42.93342,43.12008 v 42.56007 q 0,43.12008 -42.93342,43.12008 z m 8.96001,-8.21335 h 42.93342 q 33.41339,0 33.41339,-33.41339 v -45.54675 q 0,-33.41339 -33.41339,-33.41339 h -42.93342 z"
         style="font-weight:200;font-family:Oxanium;-inkscape-font-specification:'Oxanium, Ultra-Light';text-align:center;text-anchor:middle;stroke:none;stroke-width:6.64096;stroke-linecap:square;stroke-linejoin:miter;stroke-miterlimit:1;stroke-dasharray:none;paint-order:stroke fill markers"
         id="path2996" />
      <path
         d="m 522.61988,573.10693 v -42.74674 q 0,-26.69339 26.69338,-26.69339 h 24.26672 q 26.50671,0 26.50671,26.69339 V 555.1869 H 531.0199 v 19.7867 q 0,17.36003 17.36003,17.36003 h 47.97342 v 3.54667 l -5.22668,3.92001 h -41.81341 q -26.69338,0 -26.69338,-26.69338 z m 8.40002,-25.38671 h 60.66678 v -19.22671 q 0,-17.36003 -17.36004,-17.36003 h -25.94671 q -17.36003,0 -17.36003,17.36003 z"
         style="font-weight:200;font-family:Oxanium;-inkscape-font-specification:'Oxanium, Ultra-Light';text-align:center;text-anchor:middle;stroke:none;stroke-width:6.64096;stroke-linecap:square;stroke-linejoin:miter;stroke-miterlimit:1;stroke-dasharray:none;paint-order:stroke fill markers"
         id="path2998" />
      <path
         d="m 618.37979,505.53347 1.12,-1.86667 h 7.28001 l 31.73339,88.66683 h 4.85335 l 31.73339,-88.66683 h 7.28001 l 1.12,1.86667 -34.34673,94.26684 h -16.24003 z"
         style="font-weight:200;font-family:Oxanium;-inkscape-font-specification:'Oxanium, Ultra-Light';text-align:center;text-anchor:middle;stroke:none;stroke-width:6.64096;stroke-linecap:square;stroke-linejoin:miter;stroke-miterlimit:1;stroke-dasharray:none;paint-order:stroke fill markers"
         id="path3000" />
      <path
         d="m 723.2865,572.92026 v -75.04013 q 0,-26.88005 26.88005,-26.88005 h 44.24008 q 26.88005,0 26.88005,26.88005 v 75.04013 q 0,26.88005 -26.88005,26.88005 h -44.24008 q -26.88005,0 -26.88005,-26.88005 z m 8.96001,1.86667 q 0,16.80003 16.9867,16.80003 h 46.29342 q 16.80003,0 16.80003,-16.80003 v -78.77347 q 0,-16.80003 -16.80003,-16.80003 h -46.29342 q -16.9867,0 -16.9867,16.80003 z"
         style="font-weight:200;font-family:Oxanium;-inkscape-font-specification:'Oxanium, Ultra-Light';text-align:center;text-anchor:middle;stroke:none;stroke-width:6.64096;stroke-linecap:square;stroke-linejoin:miter;stroke-miterlimit:1;stroke-dasharray:none;paint-order:stroke fill markers"
         id="path3002" />
      <path
         d="M 853.02002,637.13371 V 503.6668 h 50.96009 q 26.50672,0 26.50672,26.69339 v 42.74674 q 0,26.69338 -26.50672,26.69338 h -42.56008 v 37.3334 z m 8.40001,-44.80008 h 43.30675 q 17.36003,0 17.36003,-17.36003 v -46.48009 q 0,-17.36003 -17.36003,-17.36003 h -43.30675 z"
         style="font-weight:200;font-family:Oxanium;-inkscape-font-specification:'Oxanium, Ultra-Light';text-align:center;text-anchor:middle;stroke:none;stroke-width:6.64096;stroke-linecap:square;stroke-linejoin:miter;stroke-miterlimit:1;stroke-dasharray:none;paint-order:stroke fill markers"
         id="path3004" />
      <path
         d="m 956.62013,595.8803 v -3.54667 h 43.30675 q 16.98672,0 16.98672,-16.61336 0,-16.80003 -13.4401,-19.04004 l -23.51999,-3.92 q -23.33338,-3.92001 -23.33338,-24.26672 0,-24.82671 26.88005,-24.82671 h 32.29342 l 5.2266,3.92001 v 3.54667 h -38.82669 q -17.17336,0 -17.17336,16.61337 0,14.37336 14.18669,16.80003 l 23.52006,3.92 q 22.7734,3.73334 22.7734,26.32005 0,25.01338 -27.06676,25.01338 h -36.58673 z"
         style="font-weight:200;font-family:Oxanium;-inkscape-font-specification:'Oxanium, Ultra-Light';text-align:center;text-anchor:middle;stroke:none;stroke-width:6.64096;stroke-linecap:square;stroke-linejoin:miter;stroke-miterlimit:1;stroke-dasharray:none;paint-order:stroke fill markers"
         id="path3006" />
    </g>
    <path
       style="display:inline;fill:#ffffff;fill-opacity:1;stroke:none;stroke-width:1.00404;stroke-linecap:square;stroke-linejoin:miter;stroke-miterlimit:1;stroke-dasharray:none;stroke-opacity:1;paint-order:stroke fill markers"
       d="m 450.13465,67.53436 c -0.10747,-0.02561 -0.27869,-0.10591 -0.38049,-0.178385 -0.10176,-0.07246 -0.26627,-0.23796 -0.36555,-0.367749 -0.18053,-0.235991 -0.18053,-0.235991 -0.20067,-1.669665 -0.0111,-0.788527 -0.002,-1.550108 0.0184,-1.692391 0.0212,-0.142293 0.0963,-0.324625 0.16678,-0.40517 0.0705,-0.08051 0.16466,-0.19793 0.20925,-0.260822 0.0445,-0.06295 0.18898,-0.152826 0.32086,-0.19984 0.17698,-0.06305 0.63156,-0.08613 1.73579,-0.08788 0.8228,-9.7e-4 1.59544,0.02522 1.71694,0.05897 0.1215,0.03375 0.30829,0.152807 0.41507,0.264556 0.10677,0.111758 0.22459,0.315401 0.2618,0.452533 0.0392,0.144204 0.0679,0.835677 0.068,1.639829 0,0.827063 -0.0281,1.503676 -0.0699,1.66981 -0.0525,0.208483 -0.13795,0.334713 -0.33691,0.497753 -0.14661,0.120149 -0.36021,0.245302 -0.47466,0.278126 -0.11446,0.03278 -0.81138,0.05684 -1.54871,0.05335 -0.73731,-0.0039 -1.42853,-0.02735 -1.53602,-0.05296 z m 7.30753,-7.596374 c -0.22986,-0.07634 -0.36417,-0.175504 -0.54174,-0.400156 -0.15367,-0.194389 -0.25018,-0.392445 -0.27635,-0.567124 -0.0222,-0.147637 -0.0303,-0.883524 -0.0179,-1.635319 0.0211,-1.301828 0.0292,-1.378008 0.16713,-1.600215 0.0797,-0.128326 0.27543,-0.324674 0.43504,-0.436336 0.2902,-0.203021 0.2902,-0.203021 1.88113,-0.203021 1.59093,0 1.59093,0 1.90894,0.204069 0.27205,0.174573 0.33719,0.256602 0.45049,0.567405 0.11948,0.32773 0.13247,0.492884 0.13247,1.685398 0,1.047447 -0.0208,1.385884 -0.10048,1.629305 -0.0553,0.168976 -0.18454,0.389399 -0.28725,0.489828 -0.10271,0.100439 -0.32223,0.226912 -0.48781,0.281064 -0.23893,0.07818 -0.57513,0.09724 -1.6295,0.09253 -1.04816,-0.0048 -1.39296,-0.02735 -1.6341,-0.107403 z m -8.48344,-1.814664 c -0.2057,-0.02512 -0.47216,-0.07604 -0.59216,-0.113097 -0.12,-0.03705 -0.37029,-0.08545 -0.55622,-0.107549 -0.18591,-0.02211 -0.39628,-0.07013 -0.4675,-0.106811 -0.0712,-0.03666 -0.21859,-0.15919 -0.32752,-0.272277 -0.1392,-0.144504 -0.21105,-0.292112 -0.24171,-0.49655 -0.024,-0.160004 -0.002,-0.884387 0.0506,-1.609741 0.0807,-1.128962 0.11548,-1.36536 0.24171,-1.642079 0.0998,-0.218783 0.23813,-0.389418 0.42795,-0.527909 0.27298,-0.199151 0.29588,-0.204321 0.8531,-0.192371 0.31492,0.0068 0.77774,0.05383 1.02851,0.104687 0.25076,0.05083 0.59618,0.109693 0.7676,0.130847 0.26237,0.0324 0.35989,0.01261 0.61673,-0.125211 0.16778,-0.09001 0.3809,-0.239444 0.47359,-0.332065 0.0926,-0.09263 0.24994,-0.232887 0.34944,-0.311725 0.0995,-0.07886 0.29844,-0.2331 0.44209,-0.342841 0.14366,-0.109722 0.36306,-0.269629 0.4876,-0.355334 0.12452,-0.08574 0.28748,-0.215321 0.36216,-0.288029 0.0746,-0.07275 0.18235,-0.156861 0.23934,-0.187008 0.0569,-0.03016 0.21125,-0.153078 0.34284,-0.273198 0.13157,-0.120119 0.46362,-0.401106 0.73789,-0.624419 0.27428,-0.223323 0.57503,-0.454765 0.66832,-0.51431 0.0933,-0.05956 0.31771,-0.236127 0.49867,-0.392387 0.18096,-0.15626 0.41317,-0.352773 0.51603,-0.436694 0.10285,-0.0839 0.25713,-0.210219 0.34283,-0.280657 0.0857,-0.07042 0.33002,-0.2544 0.5429,-0.408788 0.29502,-0.213953 0.42423,-0.359253 0.54335,-0.611025 0.13371,-0.282665 0.16606,-0.477616 0.22426,-1.351509 0.0374,-0.561653 0.10959,-1.231564 0.1604,-1.48869 0.0507,-0.257126 0.11768,-0.732123 0.14861,-1.055546 0.0395,-0.412736 0.0916,-0.63572 0.17483,-0.748002 0.0652,-0.08798 0.23785,-0.244119 0.38363,-0.346973 0.25795,-0.181983 0.28292,-0.186687 0.93273,-0.175562 0.3672,0.0068 0.85479,0.0548 1.0835,0.107888 0.22872,0.05306 0.94334,0.137637 1.58808,0.187997 0.95027,0.0742 1.27211,0.124601 1.69989,0.266118 0.51412,0.170082 0.5329,0.183302 0.73028,0.514649 0.17332,0.290968 0.20258,0.399041 0.20258,0.748409 0,0.224594 -0.028,0.506163 -0.0624,0.62572 -0.0343,0.119566 -0.10464,0.736479 -0.15634,1.370937 -0.0517,0.634449 -0.1335,1.363925 -0.18175,1.621051 -0.0483,0.257125 -0.10642,0.630947 -0.12925,0.830719 -0.0364,0.318301 -0.0745,0.396684 -0.30825,0.633799 -0.20692,0.209918 -0.32874,0.279891 -0.54317,0.312045 -0.15205,0.02279 -0.83617,-0.0048 -1.52025,-0.06159 -0.6841,-0.05665 -1.435,-0.143156 -1.66867,-0.192168 -0.23365,-0.04898 -0.67342,-0.08914 -0.97728,-0.08914 -0.38476,0 -0.57842,0.026 -0.63791,0.08545 -0.0469,0.04695 -0.1752,0.131856 -0.28494,0.188608 -0.10976,0.05674 -0.19954,0.125852 -0.19954,0.153554 0,0.02764 -0.16071,0.160227 -0.35713,0.294489 -0.19641,0.134261 -0.70276,0.531401 -1.12519,0.882544 -0.42246,0.351154 -0.81741,0.664828 -0.87765,0.69707 -0.0602,0.0322 -0.24815,0.186435 -0.41755,0.342657 -0.16941,0.156211 -0.32807,0.284323 -0.35261,0.284682 -0.0245,6.11e-4 -0.12619,0.07779 -0.22592,0.17209 -0.0997,0.09428 -0.31123,0.26959 -0.47,0.389583 -0.15876,0.119993 -0.36563,0.281113 -0.45974,0.35805 -0.0941,0.07692 -0.24121,0.198376 -0.32691,0.269881 -0.0858,0.07149 -0.29629,0.232964 -0.46796,0.358797 -0.17167,0.125832 -0.42742,0.321647 -0.56833,0.435161 -0.14417,0.116143 -0.32421,0.347827 -0.41174,0.529839 -0.1249,0.259784 -0.17495,0.52044 -0.25422,1.324089 -0.0799,0.810593 -0.12596,1.048601 -0.2423,1.253252 -0.079,0.138956 -0.24007,0.33382 -0.35795,0.433047 -0.20867,0.175698 -0.23396,0.180664 -0.96615,0.189859 -0.41353,0.0049 -0.92019,-0.01115 -1.12589,-0.03628 z m -2.86321,-6.58562 c -0.13486,-0.04937 -0.29858,-0.138122 -0.36382,-0.197163 -0.0653,-0.05907 -0.20095,-0.229327 -0.30156,-0.378419 -0.10064,-0.149083 -0.24546,-0.383774 -0.32186,-0.521546 -0.0763,-0.137773 -0.21492,-0.380912 -0.30779,-0.540315 -0.0929,-0.159393 -0.22693,-0.407867 -0.29787,-0.552148 -0.0709,-0.144291 -0.15854,-0.280618 -0.19469,-0.302947 -0.0361,-0.02231 -0.12032,-0.156745 -0.18707,-0.298679 -0.0667,-0.141924 -0.25377,-0.482621 -0.4156,-0.7571 -0.16183,-0.274478 -0.34769,-0.577755 -0.41301,-0.673955 -0.0654,-0.09622 -0.24942,-0.241102 -0.40911,-0.322016 -0.15966,-0.08089 -0.46772,-0.179277 -0.68457,-0.218609 -0.21686,-0.03928 -0.52529,-0.123126 -0.68541,-0.186241 -0.16012,-0.06314 -0.42973,-0.135047 -0.59915,-0.159839 -0.16941,-0.02483 -0.43736,-0.09554 -0.59546,-0.157134 -0.15811,-0.06159 -0.46547,-0.144339 -0.68304,-0.183787 -0.21755,-0.03948 -0.46939,-0.109906 -0.55962,-0.15657 -0.0902,-0.04665 -0.35792,-0.117879 -0.59482,-0.158259 -0.23691,-0.04035 -0.52891,-0.113795 -0.64892,-0.163146 -0.11999,-0.04937 -0.41451,-0.130217 -0.65451,-0.179666 -0.23996,-0.04947 -0.5345,-0.129178 -0.65449,-0.177182 -0.12001,-0.04801 -0.45659,-0.147094 -0.74802,-0.22019 -0.29139,-0.07313 -0.79629,-0.196746 -1.12199,-0.27474 -0.3257,-0.07799 -0.64827,-0.172429 -0.71684,-0.209831 -0.0686,-0.03744 -0.26492,-0.08846 -0.43633,-0.113456 -0.17143,-0.02502 -0.45192,-0.09715 -0.62335,-0.160334 -0.17142,-0.06314 -0.53259,-0.157026 -0.80261,-0.208531 -0.37211,-0.071 -0.56073,-0.07818 -0.77918,-0.02968 -0.15851,0.03521 -0.3864,0.126327 -0.50638,0.202517 -0.11999,0.07614 -0.30231,0.18565 -0.40519,0.243226 -0.10285,0.05762 -0.31321,0.176416 -0.46749,0.264071 -0.15428,0.08768 -0.42075,0.242606 -0.59217,0.344345 -0.17141,0.101739 -0.42388,0.243653 -0.561,0.315362 -0.13714,0.07168 -0.4036,0.224603 -0.59217,0.339756 -0.18857,0.115154 -0.60387,0.358671 -0.92293,0.541139 -0.31903,0.182479 -0.70181,0.401902 -0.85061,0.487608 -0.1488,0.08574 -0.41663,0.239986 -0.59515,0.342831 -0.17853,0.102854 -0.45493,0.262451 -0.61422,0.354655 -0.15929,0.09224 -0.35974,0.199821 -0.44544,0.239124 -0.0857,0.03928 -0.31777,0.07187 -0.5157,0.07236 -0.21631,6.21e-4 -0.41521,-0.03618 -0.49867,-0.09195 -0.0764,-0.05102 -0.18776,-0.145018 -0.24758,-0.208812 -0.0598,-0.06382 -0.17519,-0.200151 -0.25639,-0.303005 -0.0812,-0.102844 -0.21459,-0.310881 -0.29642,-0.462301 -0.0818,-0.15142 -0.21889,-0.395073 -0.3046,-0.541459 -0.0856,-0.146386 -0.31011,-0.534621 -0.49867,-0.862757 -0.18855,-0.328127 -0.40698,-0.715596 -0.48536,-0.861051 -0.0784,-0.145445 -0.22571,-0.390679 -0.32735,-0.544951 -0.10165,-0.154281 -0.24486,-0.406732 -0.31825,-0.561003 -0.0734,-0.154282 -0.15371,-0.294528 -0.17853,-0.311667 -0.0248,-0.01717 -0.10528,-0.143369 -0.17883,-0.280512 -0.0736,-0.137132 -0.21596,-0.389583 -0.3165,-0.560994 -0.10053,-0.17142 -0.25476,-0.437896 -0.34275,-0.592178 -0.088,-0.154271 -0.24308,-0.420748 -0.34467,-0.592168 -0.1016,-0.171421 -0.23039,-0.408711 -0.28622,-0.527317 -0.0718,-0.152633 -0.0947,-0.336362 -0.0782,-0.628727 0.0194,-0.344373 0.0531,-0.448459 0.20206,-0.625855 0.0983,-0.117035 0.27996,-0.275429 0.40371,-0.351997 0.12373,-0.07653 0.34306,-0.196581 0.48733,-0.2667 0.14428,-0.07013 0.27868,-0.153922 0.29866,-0.186251 0.02,-0.0323 0.15439,-0.115589 0.29866,-0.185009 0.1443,-0.06945 0.4026,-0.214526 0.57401,-0.322463 0.17143,-0.107936 0.42388,-0.260986 0.56101,-0.340105 0.13713,-0.07915 0.37555,-0.208289 0.52983,-0.287059 0.15427,-0.07876 0.29453,-0.160479 0.31167,-0.181586 0.0172,-0.02114 0.14338,-0.09855 0.28052,-0.17209 0.13713,-0.07352 0.38956,-0.216921 0.56099,-0.318611 0.17141,-0.10169 0.4379,-0.245622 0.59216,-0.319843 0.15427,-0.0742 0.29454,-0.155252 0.31168,-0.180063 0.0172,-0.02483 0.14336,-0.106385 0.2805,-0.181275 0.13714,-0.07488 0.40362,-0.232198 0.59217,-0.349563 0.18855,-0.117365 0.45503,-0.271191 0.59218,-0.341833 0.13714,-0.07061 0.31945,-0.169141 0.40517,-0.218899 0.0928,-0.05383 0.32252,-0.09079 0.56801,-0.09137 0.36659,-8.83e-4 0.43871,0.02018 0.65209,0.189733 0.13194,0.104852 0.30268,0.294198 0.37941,0.420748 0.0767,0.12656 0.21162,0.356333 0.29972,0.510614 0.0881,0.154272 0.24326,0.420748 0.34477,0.592169 0.10153,0.171411 0.26227,0.44781 0.35722,0.614215 0.095,0.166406 0.24852,0.432883 0.3413,0.592179 0.0927,0.159286 0.21948,0.387788 0.28155,0.507782 0.0621,0.119993 0.166,0.297272 0.23094,0.393958 0.065,0.0967 0.16826,0.264992 0.2296,0.374005 0.0613,0.109014 0.16984,0.316265 0.24107,0.460546 0.0712,0.144281 0.15724,0.279444 0.19107,0.300347 0.0338,0.02095 0.10466,0.127258 0.1574,0.23634 0.0528,0.109071 0.17751,0.338573 0.27725,0.509984 0.0998,0.17142 0.2562,0.451922 0.34768,0.623343 0.0915,0.17142 0.18647,0.325692 0.21113,0.342831 0.0246,0.01717 0.0755,0.08943 0.11296,0.160741 0.0374,0.07129 0.21031,0.203332 0.38405,0.29348 0.17377,0.09011 0.4907,0.195582 0.70434,0.234332 0.21362,0.0387 0.47712,0.1075 0.58556,0.152797 0.10843,0.0453 0.36108,0.114465 0.56146,0.15368 0.20036,0.03919 0.5326,0.125358 0.7383,0.191431 0.20571,0.06605 0.59841,0.178133 0.87268,0.249017 0.27428,0.0709 0.71691,0.180926 0.98366,0.244546 0.26675,0.06363 0.59038,0.157812 0.71918,0.209346 0.12878,0.0515 0.37336,0.114542 0.54349,0.140003 0.17016,0.02541 0.49816,0.112234 0.72893,0.192808 0.23077,0.0806 0.47851,0.146503 0.55053,0.146503 0.0721,0 0.33202,0.06751 0.57776,0.149936 0.24575,0.08245 0.55901,0.167957 0.69614,0.189985 0.13713,0.02202 0.41763,0.09496 0.62335,0.162177 0.20569,0.06712 0.5984,0.179374 0.87267,0.249356 0.27427,0.06993 0.7126,0.178346 0.97404,0.240802 0.35787,0.08545 0.55651,0.100749 0.80359,0.06169 0.1805,-0.02852 0.42942,-0.121506 0.55312,-0.206591 0.12371,-0.08507 0.29506,-0.18533 0.38077,-0.22276 0.0857,-0.03744 0.3101,-0.164476 0.49866,-0.282335 0.18856,-0.11786 0.45506,-0.271976 0.59218,-0.342483 0.13713,-0.07052 0.52983,-0.294634 0.87266,-0.498063 0.34284,-0.203419 0.82918,-0.472417 1.08075,-0.597765 0.36798,-0.183341 0.50499,-0.221519 0.70085,-0.195252 0.13389,0.01794 0.37044,0.112486 0.52568,0.210063 0.18145,0.114048 0.3274,0.270211 0.4087,0.437276 0.0695,0.142933 0.16713,0.293626 0.21682,0.334888 0.0498,0.04122 0.0904,0.100478 0.0904,0.131613 0,0.03114 0.11923,0.253091 0.26492,0.493233 0.1457,0.240142 0.33506,0.560984 0.42076,0.712967 0.0857,0.151992 0.30519,0.536697 0.48773,0.854901 0.18252,0.318194 0.3978,0.690745 0.47838,0.827878 0.0806,0.137142 0.17377,0.280094 0.20707,0.31769 0.0333,0.03754 0.14759,0.243827 0.25401,0.458314 0.10642,0.214487 0.19349,0.472175 0.19349,0.572643 0,0.100478 -0.0682,0.317157 -0.15144,0.481526 -0.0833,0.164359 -0.24971,0.373802 -0.36984,0.465424 -0.12014,0.09166 -0.2449,0.16659 -0.27728,0.16659 -0.0324,0 -0.097,0.04588 -0.14352,0.10202 -0.0465,0.05616 -0.19727,0.155125 -0.33488,0.220045 -0.13763,0.06489 -0.53073,0.284963 -0.87356,0.489003 -0.34284,0.204041 -0.73553,0.429517 -0.87268,0.501071 -0.13712,0.07158 -0.4036,0.225815 -0.59217,0.342802 -0.18855,0.116986 -0.44101,0.258105 -0.56101,0.313587 -0.11999,0.05548 -0.26023,0.13785 -0.31166,0.183002 -0.0514,0.0451 -0.24778,0.140527 -0.43633,0.211926 -0.18857,0.07139 -0.41296,0.127869 -0.49868,0.125473 -0.0857,-0.0019 -0.26617,-0.04481 -0.40103,-0.09418 z m 25.52113,-7.251438 c -0.0859,-0.02687 -0.25149,-0.09804 -0.36794,-0.158258 -0.11642,-0.06023 -0.28256,-0.193701 -0.36917,-0.296652 -0.0866,-0.102951 -0.20158,-0.265826 -0.25542,-0.361939 -0.0538,-0.09612 -0.18206,-0.320416 -0.28492,-0.498432 -0.10283,-0.178026 -0.25711,-0.444085 -0.34283,-0.591257 -0.0857,-0.147162 -0.23999,-0.413638 -0.34284,-0.592168 -0.10283,-0.178531 -0.26289,-0.45493 -0.35567,-0.614216 -0.0927,-0.159296 -0.22044,-0.387799 -0.28369,-0.507792 -0.0632,-0.119993 -0.207,-0.362318 -0.31943,-0.53851 -0.17124,-0.268329 -0.27189,-0.350931 -0.62016,-0.508811 -0.22865,-0.103659 -0.54196,-0.208027 -0.69622,-0.231936 -0.15429,-0.02386 -0.43478,-0.09399 -0.62333,-0.155814 -0.18857,-0.06179 -0.53919,-0.146648 -0.7792,-0.18856 -0.23996,-0.0419 -0.50766,-0.112194 -0.5948,-0.156192 -0.0872,-0.04404 -0.33942,-0.112825 -0.56056,-0.152923 -0.22116,-0.04006 -0.50046,-0.114184 -0.6207,-0.164621 -0.12023,-0.05044 -0.42003,-0.130411 -0.66621,-0.177696 -0.24619,-0.04733 -0.5344,-0.130848 -0.64049,-0.185699 -0.10608,-0.0549 -0.35345,-0.128112 -0.54972,-0.162797 -0.19628,-0.03472 -0.52516,-0.116929 -0.73087,-0.18276 -0.20569,-0.06586 -0.54229,-0.160692 -0.74799,-0.210829 -0.2057,-0.05015 -0.55633,-0.138413 -0.7792,-0.196194 -0.22282,-0.05781 -0.62954,-0.170489 -0.90381,-0.250472 -0.27428,-0.08002 -0.66696,-0.187551 -0.87268,-0.239065 -0.2057,-0.0515 -0.52827,-0.137724 -0.71683,-0.191576 -0.18856,-0.05383 -0.5184,-0.09968 -0.73297,-0.101836 -0.29477,-0.0029 -0.43949,0.02793 -0.59216,0.12657 -0.11113,0.07178 -0.30725,0.176629 -0.4358,0.233042 -0.12857,0.05645 -0.23377,0.122903 -0.23377,0.147763 0,0.02483 -0.13323,0.106433 -0.29609,0.181275 -0.16283,0.07478 -0.45035,0.231199 -0.6389,0.347478 -0.18857,0.116278 -0.46907,0.283916 -0.62334,0.372512 -0.15429,0.08856 -0.39271,0.228725 -0.52984,0.311385 -0.13713,0.08264 -0.36467,0.214894 -0.50562,0.293848 -0.14095,0.07896 -0.40333,0.227727 -0.58305,0.330571 -0.17972,0.102855 -0.4571,0.263004 -0.61639,0.355897 -0.15928,0.09292 -0.40768,0.226931 -0.55196,0.297864 -0.14429,0.0709 -0.28062,0.15854 -0.30296,0.19468 -0.0223,0.03618 -0.15673,0.121206 -0.29866,0.189025 -0.14192,0.0678 -0.35621,0.177668 -0.47621,0.24408 -0.15094,0.08351 -0.33916,0.120799 -0.61086,0.120867 -0.2252,5.8e-5 -0.46447,-0.0386 -0.561,-0.09059 -0.0925,-0.04986 -0.23407,-0.169102 -0.31441,-0.264915 -0.0803,-0.09583 -0.24165,-0.327535 -0.35844,-0.51494 -0.11676,-0.187406 -0.21231,-0.373308 -0.21231,-0.413115 0,-0.03977 -0.0459,-0.110488 -0.10201,-0.157055 -0.0561,-0.04656 -0.15478,-0.19727 -0.21925,-0.334888 -0.0645,-0.137617 -0.27498,-0.516696 -0.46781,-0.842388 -0.19282,-0.325692 -0.41597,-0.704373 -0.49589,-0.841506 -0.0799,-0.137132 -0.23098,-0.403608 -0.33573,-0.592168 -0.10472,-0.18856 -0.26378,-0.469062 -0.35344,-0.623343 -0.0896,-0.154272 -0.20916,-0.364646 -0.26554,-0.4675 -0.0565,-0.102844 -0.15506,-0.266108 -0.21929,-0.362793 -0.0642,-0.09671 -0.16642,-0.264982 -0.22707,-0.373996 -0.0607,-0.109023 -0.17537,-0.324441 -0.2549,-0.478713 -0.0795,-0.154281 -0.16439,-0.295429 -0.18859,-0.313655 -0.0241,-0.01823 -0.14342,-0.22727 -0.26492,-0.464531 -0.13649,-0.266535 -0.22092,-0.520305 -0.22092,-0.664052 0,-0.127967 0.0289,-0.308515 0.0641,-0.401223 0.0352,-0.09273 0.13736,-0.255826 0.22692,-0.362483 0.0896,-0.106656 0.2641,-0.255613 0.38783,-0.331017 0.12375,-0.07537 0.35122,-0.208909 0.5055,-0.296661 0.15427,-0.08778 0.42075,-0.24281 0.59216,-0.344549 0.17142,-0.101748 0.42973,-0.242528 0.57401,-0.312859 0.14429,-0.07032 0.2787,-0.15434 0.29867,-0.186668 0.02,-0.0323 0.15439,-0.116327 0.29866,-0.186659 0.1443,-0.07032 0.4026,-0.211131 0.57401,-0.31286 0.17142,-0.101748 0.44783,-0.262383 0.61423,-0.356992 0.1664,-0.09457 0.42296,-0.242121 0.57011,-0.327836 0.14717,-0.08574 0.41364,-0.239977 0.59218,-0.342831 0.17854,-0.102855 0.445,-0.257126 0.59218,-0.342842 0.14716,-0.08574 0.4037,-0.233381 0.57011,-0.328165 0.1664,-0.09478 0.4847,-0.272467 0.70734,-0.394842 0.31518,-0.173263 0.47734,-0.223157 0.73279,-0.22545 0.26096,-0.0024 0.37969,0.03283 0.58054,0.172019 0.13887,0.09623 0.31399,0.259768 0.38919,0.363417 0.0752,0.103644 0.20684,0.307781 0.29254,0.453643 0.0857,0.145853 0.31011,0.534563 0.49867,0.863786 0.18857,0.329232 0.41297,0.720338 0.49867,0.86914 0.0858,0.148801 0.23999,0.416616 0.34284,0.595146 0.10285,0.17852 0.25713,0.446335 0.34283,0.595136 0.0857,0.148802 0.3101,0.539054 0.49868,0.867239 0.18856,0.328175 0.40374,0.709921 0.47822,0.848324 0.0745,0.138404 0.16602,0.288563 0.20346,0.333685 0.0374,0.0451 0.13743,0.204904 0.22217,0.355092 0.0848,0.150168 0.20176,0.364209 0.26,0.475628 0.0583,0.111419 0.13144,0.202585 0.16265,0.202585 0.0312,0 0.13568,0.05616 0.23213,0.124872 0.0964,0.06867 0.39531,0.170092 0.66411,0.22535 0.26884,0.05529 0.56009,0.137036 0.64726,0.181712 0.0872,0.04472 0.33646,0.113505 0.55404,0.152953 0.21754,0.03948 0.5249,0.121904 0.68301,0.183234 0.15811,0.0613 0.41371,0.129984 0.56798,0.152575 0.15428,0.0226 0.4488,0.09612 0.6545,0.163486 0.20571,0.06732 0.59841,0.180412 0.87268,0.251296 0.27427,0.0709 0.7169,0.180926 0.98364,0.244536 0.26678,0.06363 0.59039,0.157822 0.71917,0.209356 0.1288,0.0515 0.37338,0.114067 0.54352,0.138975 0.17015,0.02493 0.4387,0.09573 0.5968,0.157337 0.15812,0.06159 0.46548,0.14433 0.68303,0.183787 0.21754,0.03948 0.46806,0.109218 0.55669,0.155048 0.0886,0.04578 0.34226,0.1146 0.56366,0.152826 0.22138,0.03822 0.55679,0.123777 0.74534,0.190122 0.18855,0.06634 0.57747,0.163602 0.86424,0.216145 0.47033,0.08613 0.54967,0.08604 0.81031,-0.0019 0.15895,-0.05345 0.38715,-0.159286 0.50713,-0.235244 0.12,-0.07595 0.3023,-0.186037 0.40517,-0.244632 0.10286,-0.05859 0.2847,-0.152226 0.40415,-0.208066 0.11939,-0.05587 0.28771,-0.157046 0.37399,-0.224933 0.0863,-0.0679 0.24103,-0.164447 0.34388,-0.214603 0.10286,-0.05015 0.32726,-0.172439 0.49867,-0.271734 0.17142,-0.09929 0.4519,-0.255457 0.62334,-0.347021 0.17142,-0.09156 0.47483,-0.248309 0.67423,-0.348331 0.19943,-0.100022 0.44291,-0.19792 0.5411,-0.217561 0.12547,-0.02512 0.28339,0.01727 0.53158,0.142641 0.23322,0.117821 0.42208,0.273528 0.55655,0.458848 0.11194,0.154272 0.24254,0.353045 0.29021,0.441699 0.0477,0.08866 0.15679,0.299038 0.2425,0.46751 0.0857,0.168462 0.17438,0.320425 0.19701,0.3377 0.0226,0.01727 0.11209,0.157512 0.19878,0.311667 0.0866,0.154145 0.23046,0.406499 0.31953,0.560771 0.089,0.154272 0.23807,0.413919 0.33109,0.576989 0.093,0.163059 0.35119,0.611868 0.57377,0.997329 0.38423,0.665555 0.40464,0.721279 0.40505,1.106032 0.002,0.370019 -0.0185,0.428731 -0.21764,0.676681 -0.11995,0.149335 -0.31626,0.325236 -0.43624,0.390893 -0.11998,0.06567 -0.35842,0.202992 -0.52983,0.305177 -0.17142,0.102195 -0.42386,0.242596 -0.561,0.312016 -0.13713,0.06945 -0.40363,0.22276 -0.59216,0.340746 -0.18857,0.117986 -0.38491,0.234206 -0.43634,0.25827 -0.0514,0.02405 -0.28156,0.158191 -0.51139,0.298078 -0.22982,0.139877 -0.55242,0.331463 -0.71684,0.425753 -0.16441,0.09428 -0.47025,0.254022 -0.67962,0.354985 -0.20936,0.100963 -0.44777,0.197289 -0.52984,0.214069 -0.0821,0.01678 -0.21948,0.0087 -0.30541,-0.01823 z m -58.65871,-1.467923 c -0.19262,-0.100381 -0.34518,-0.246884 -0.47569,-0.45685 -0.10569,-0.170005 -0.22498,-0.408517 -0.26507,-0.530033 -0.0402,-0.121507 -0.11356,-0.254653 -0.16322,-0.295876 -0.0497,-0.04122 -0.0903,-0.107888 -0.0903,-0.148141 0,-0.04025 -0.2243,-0.520683 -0.49845,-1.067623 -0.36204,-0.722297 -0.49851,-1.059639 -0.49868,-1.232679 0,-0.143728 0.0633,-0.346702 0.16003,-0.511662 0.0882,-0.150392 0.25741,-0.358749 0.37617,-0.463029 0.11877,-0.10427 0.25312,-0.189587 0.29857,-0.189587 0.0455,0 0.17896,-0.06538 0.29671,-0.145271 0.11774,-0.07992 0.30917,-0.178433 0.4254,-0.218948 0.11624,-0.04055 0.25522,-0.111846 0.30887,-0.158511 0.0536,-0.04666 0.20026,-0.117801 0.32581,-0.158083 0.12555,-0.04025 0.38022,-0.155543 0.56595,-0.256137 0.18573,-0.100584 0.38238,-0.232469 0.43702,-0.293063 0.0546,-0.06062 0.14602,-0.236388 0.20314,-0.39066 0.0571,-0.154281 0.15446,-0.451389 0.21632,-0.66024 0.0619,-0.208861 0.14408,-0.43326 0.18272,-0.498674 0.0387,-0.06537 0.12816,-0.287233 0.19891,-0.492932 0.0707,-0.205699 0.17016,-0.500226 0.22091,-0.654498 0.0507,-0.154281 0.14557,-0.420758 0.21072,-0.592178 0.0651,-0.171421 0.14742,-0.443969 0.18281,-0.605661 0.0354,-0.161701 0.11724,-0.414152 0.1819,-0.561013 0.0646,-0.146852 0.17994,-0.421282 0.25623,-0.609841 0.0763,-0.18856 0.18814,-0.545921 0.24853,-0.794143 0.0603,-0.248222 0.1388,-0.486647 0.17421,-0.529839 0.0354,-0.04316 0.096,-0.204748 0.13474,-0.35903 0.0387,-0.154271 0.12304,-0.406722 0.18744,-0.561004 0.0644,-0.154271 0.17858,-0.462824 0.25373,-0.685672 0.0752,-0.222838 0.15047,-0.537246 0.16733,-0.698678 0.0244,-0.233039 -0.005,-0.367893 -0.14022,-0.654503 -0.094,-0.198547 -0.32101,-0.671507 -0.50451,-1.05102 -0.18349,-0.379517 -0.33362,-0.7197 -0.33362,-0.755957 0,-0.03627 -0.0405,-0.09957 -0.0901,-0.140693 -0.0496,-0.04112 -0.13523,-0.210697 -0.19041,-0.376836 -0.0552,-0.16614 -0.13738,-0.332817 -0.18265,-0.370389 -0.0453,-0.03758 -0.11751,-0.194009 -0.16053,-0.347635 -0.0431,-0.153621 -0.10111,-0.279317 -0.12909,-0.279317 -0.0279,0 -0.11257,-0.169163 -0.18795,-0.37592 -0.0754,-0.20675 -0.16104,-0.390735 -0.19035,-0.408844 -0.0293,-0.01812 -0.0532,-0.178859 -0.0532,-0.357219 0,-0.260526 0.0398,-0.385425 0.20261,-0.635242 0.11142,-0.171026 0.29342,-0.356331 0.40443,-0.411791 0.111,-0.05546 0.23965,-0.132224 0.28588,-0.170584 0.0463,-0.03836 0.20645,-0.112938 0.35606,-0.165723 0.14961,-0.05279 0.31549,-0.133766 0.36862,-0.179956 0.0532,-0.04619 0.20878,-0.119121 0.34593,-0.162075 0.13714,-0.04295 0.29142,-0.112311 0.34285,-0.154129 0.0514,-0.04182 0.31788,-0.181417 0.59216,-0.310215 0.27426,-0.128799 0.80722,-0.382454 1.18433,-0.56368 0.37712,-0.181224 0.7558,-0.36203 0.84151,-0.401795 0.0857,-0.03975 0.2371,-0.116497 0.33643,-0.170534 0.11065,-0.06021 0.33403,-0.09824 0.57692,-0.09824 0.3143,0 0.44164,0.03064 0.61502,0.148041 0.12026,0.08143 0.28302,0.24622 0.36169,0.366212 0.0787,0.119992 0.26061,0.460868 0.40432,0.757502 0.14372,0.296632 0.2613,0.566687 0.2613,0.600121 0,0.03343 0.0375,0.09194 0.0834,0.130016 0.0459,0.03807 0.11878,0.188772 0.16199,0.334884 0.0432,0.146112 0.11552,0.307734 0.16069,0.35916 0.0451,0.05143 0.13091,0.219725 0.19053,0.374002 0.0597,0.154275 0.14151,0.322577 0.18196,0.374002 0.0405,0.05143 0.11137,0.191676 0.15755,0.311671 0.0462,0.11999 0.13495,0.285061 0.19726,0.366825 0.0623,0.08177 0.11329,0.182998 0.11329,0.224976 0,0.04197 0.0798,0.227531 0.17743,0.412348 0.0976,0.184813 0.22779,0.5247 0.28936,0.755305 0.0767,0.287241 0.0922,0.444286 0.0493,0.498674 -0.0344,0.04367 -0.0798,0.151964 -0.10101,0.240676 -0.0211,0.08871 -0.0967,0.235413 -0.16796,0.326013 -0.0712,0.09059 -0.37342,0.281174 -0.67144,0.423505 -0.29804,0.142333 -0.7242,0.351153 -0.94705,0.464043 -0.22284,0.112894 -0.65761,0.330888 -0.96617,0.484436 -0.30855,0.153547 -0.75735,0.369699 -0.99733,0.480335 -0.23999,0.110638 -0.47842,0.236255 -0.52985,0.279153 -0.0514,0.0429 -0.16362,0.09849 -0.24934,0.123547 -0.0856,0.02503 -0.23222,0.117044 -0.32559,0.204447 -0.0934,0.08739 -0.25146,0.329689 -0.3513,0.538414 -0.0999,0.208735 -0.2022,0.477684 -0.22745,0.597678 -0.0252,0.119993 -0.0979,0.320949 -0.16147,0.446568 -0.0636,0.125619 -0.14531,0.364044 -0.18162,0.529839 -0.0363,0.165785 -0.11747,0.441689 -0.18037,0.6131 -0.063,0.171421 -0.16299,0.451922 -0.22242,0.623343 -0.0594,0.171411 -0.16239,0.465948 -0.22882,0.654508 -0.0664,0.188559 -0.15954,0.426984 -0.20694,0.529839 -0.0474,0.102844 -0.14604,0.369321 -0.21924,0.592168 -0.0731,0.222838 -0.18678,0.587493 -0.25244,0.810331 -0.0657,0.222848 -0.15893,0.475299 -0.20733,0.561004 -0.0483,0.08574 -0.10767,0.254013 -0.13177,0.374006 -0.0241,0.119993 -0.0937,0.330367 -0.15459,0.46751 -0.0609,0.137132 -0.18316,0.487752 -0.27161,0.779166 -0.0885,0.291414 -0.17744,0.590238 -0.19774,0.664052 -0.0221,0.0808 0.0289,0.279299 0.12838,0.498665 0.0909,0.200461 0.20324,0.434589 0.24969,0.520294 0.0464,0.08574 0.11675,0.225962 0.15623,0.311667 0.0395,0.08574 0.22289,0.464386 0.40756,0.841506 0.28519,0.582352 0.33571,0.738331 0.33531,1.035128 0,0.302879 -0.0295,0.387459 -0.21817,0.634575 -0.11976,0.156813 -0.27403,0.302995 -0.34286,0.324829 -0.0688,0.02182 -0.12512,0.06353 -0.12512,0.09273 0,0.0291 -0.13324,0.102621 -0.29609,0.163282 -0.16284,0.06072 -0.36297,0.161169 -0.44474,0.223323 -0.0818,0.06217 -0.17993,0.113088 -0.21816,0.113175 -0.0382,5.8e-5 -0.32198,0.128704 -0.63053,0.285817 -0.30855,0.157114 -0.75733,0.367333 -0.99732,0.467141 -0.24,0.09981 -0.53452,0.180257 -0.65452,0.178783 -0.11999,-0.0019 -0.34577,-0.06916 -0.50172,-0.15045 z m 20.0916,-7.650081 c -0.14486,-0.0742 -0.35523,-0.229598 -0.46749,-0.345392 -0.20409,-0.210529 -0.20409,-0.210529 -0.22251,-3.308213 -0.0102,-1.70373 -0.002,-3.191789 0.0196,-3.306797 0.0223,-0.12259 0.13474,-0.306735 0.27169,-0.445079 0.17996,-0.181756 0.31459,-0.252779 0.58598,-0.309122 0.24848,-0.05158 1.19382,-0.06738 3.20628,-0.05359 2.70814,0.01855 2.86659,0.02592 3.10207,0.144224 0.13651,0.06857 0.33286,0.246296 0.43634,0.394954 0.18817,0.270291 0.18817,0.270291 0.18817,3.39719 0,3.126899 0,3.126899 -0.17575,3.376236 -0.10108,0.143418 -0.3129,0.322142 -0.49866,0.420739 -0.32293,0.171401 -0.32293,0.171401 -3.25263,0.170557 -2.87992,-8.93e-4 -2.93416,-0.0029 -3.19308,-0.135707 z m 42.77505,-0.560722 c -0.0686,-0.0386 -0.20883,-0.161227 -0.31166,-0.2725 -0.10287,-0.111274 -0.2191,-0.242761 -0.25829,-0.29219 -0.0393,-0.04947 -0.12041,-0.185427 -0.18045,-0.3022 -0.06,-0.116773 -0.1628,-0.282442 -0.22837,-0.368147 -0.0656,-0.08574 -0.20126,-0.282064 -0.30151,-0.436335 -0.10025,-0.154282 -0.18281,-0.3235 -0.18343,-0.376062 -0.002,-0.05257 -0.0606,-0.169423 -0.13321,-0.259706 -0.0727,-0.0903 -0.19875,-0.327788 -0.28023,-0.527783 -0.0815,-0.199995 -0.14799,-0.41973 -0.14784,-0.488296 0,-0.06858 0.0639,-0.255942 0.14157,-0.416373 0.0777,-0.160441 0.22283,-0.356789 0.3225,-0.436335 0.0997,-0.07954 0.40751,-0.276419 0.68405,-0.43748 0.27658,-0.161071 0.62911,-0.365344 0.78336,-0.45394 0.15428,-0.08856 0.40672,-0.244235 0.561,-0.345887 0.15428,-0.101632 0.37848,-0.230171 0.49823,-0.285642 0.15319,-0.071 0.31486,-0.09079 0.54549,-0.06702 0.23427,0.02415 0.38866,0.084 0.54123,0.209801 0.11742,0.0968 0.28597,0.282772 0.37455,0.413299 0.0886,0.130527 0.21783,0.340882 0.28725,0.467442 0.0694,0.126569 0.20882,0.356352 0.3098,0.510634 0.10096,0.154271 0.2535,0.406722 0.33897,0.561003 0.0855,0.154272 0.24033,0.455201 0.34412,0.668718 0.10383,0.213516 0.18875,0.467713 0.18875,0.564874 0,0.09716 -0.0592,0.301142 -0.13144,0.45329 -0.0723,0.152147 -0.21763,0.34675 -0.32303,0.432465 -0.10537,0.08574 -0.40387,0.28958 -0.6633,0.453057 -0.25946,0.163477 -0.58982,0.353608 -0.73409,0.422523 -0.14428,0.06896 -0.27944,0.152982 -0.30033,0.186814 -0.0208,0.03385 -0.12725,0.104658 -0.23635,0.157395 -0.10908,0.05277 -0.29652,0.150459 -0.41649,0.217134 -0.14983,0.08322 -0.33535,0.120663 -0.59219,0.119421 -0.20569,-8.82e-4 -0.43009,-0.03337 -0.49866,-0.07197 z m -68.72069,-1.518536 c -0.27019,-0.06237 -0.39459,-0.135833 -0.60207,-0.355421 -0.21882,-0.231607 -0.26843,-0.332162 -0.30389,-0.61603 -0.0233,-0.186581 -0.0329,-0.94339 -0.0212,-1.681789 0.0211,-1.342547 0.0211,-1.342547 0.19306,-1.602224 0.0946,-0.142816 0.28885,-0.33705 0.43173,-0.431621 0.25978,-0.171954 0.25978,-0.171954 1.86404,-0.171954 1.60427,0 1.60427,0 1.86876,0.186998 0.14545,0.102854 0.32322,0.266137 0.39501,0.362851 0.12252,0.165039 0.13181,0.268388 0.15122,1.680723 0.0115,0.827674 0.002,1.627209 -0.0202,1.776748 -0.0293,0.195524 -0.10517,0.338359 -0.27,0.508548 -0.12609,0.130168 -0.32742,0.273538 -0.4474,0.318602 -0.15164,0.05694 -0.62691,0.08516 -1.55836,0.09253 -0.89364,0.0068 -1.45362,-0.01552 -1.68072,-0.06799 z m 58.15511,-3.086791 c -0.0856,-0.03589 -0.23559,-0.140741 -0.33306,-0.233062 -0.0975,-0.09234 -0.24658,-0.294071 -0.33132,-0.448343 -0.0848,-0.154272 -0.22137,-0.392707 -0.30361,-0.529839 -0.0822,-0.137133 -0.22304,-0.375558 -0.31285,-0.529839 -0.0898,-0.15427 -0.24405,-0.420752 -0.34278,-0.592167 -0.0987,-0.171416 -0.25088,-0.437895 -0.33817,-0.592171 -0.0873,-0.154277 -0.24198,-0.420752 -0.34372,-0.592172 -0.10172,-0.171418 -0.2425,-0.42972 -0.31284,-0.574005 -0.0703,-0.144285 -0.15433,-0.278688 -0.18666,-0.298666 -0.0323,-0.01998 -0.11621,-0.154383 -0.18638,-0.298668 -0.0702,-0.144284 -0.29477,-0.542837 -0.49907,-0.885676 -0.20432,-0.342835 -0.42168,-0.721511 -0.48303,-0.841505 -0.0613,-0.119993 -0.19521,-0.304198 -0.29746,-0.409348 -0.12491,-0.128464 -0.34949,-0.244336 -0.68456,-0.353226 -0.27429,-0.08913 -0.66699,-0.195637 -0.87268,-0.23669 -0.20571,-0.04105 -0.44413,-0.109729 -0.52985,-0.152617 -0.0858,-0.04289 -0.35219,-0.113687 -0.59217,-0.157328 -0.23998,-0.04364 -0.56256,-0.127423 -0.71683,-0.18618 -0.15428,-0.05876 -0.46248,-0.141761 -0.68489,-0.184443 -0.22239,-0.04269 -0.47485,-0.113393 -0.561,-0.157137 -0.0861,-0.04374 -0.35046,-0.112753 -0.58737,-0.153355 -0.23691,-0.04059 -0.50458,-0.112 -0.59481,-0.158667 -0.0902,-0.04666 -0.34521,-0.116123 -0.5666,-0.154349 -0.22139,-0.03823 -0.55681,-0.123249 -0.74536,-0.188939 -0.18857,-0.06569 -0.51115,-0.152108 -0.71684,-0.192035 -0.2057,-0.03992 -0.44413,-0.107689 -0.52983,-0.15058 -0.0858,-0.04288 -0.3522,-0.113685 -0.59217,-0.157325 -0.23999,-0.04365 -0.56256,-0.127424 -0.71686,-0.186186 -0.15426,-0.05876 -0.46245,-0.141758 -0.68486,-0.184441 -0.22241,-0.04269 -0.47489,-0.114067 -0.56107,-0.158637 -0.0862,-0.04456 -0.31096,-0.10012 -0.49947,-0.123452 -0.20628,-0.02551 -0.40482,-0.01554 -0.4986,0.02508 -0.0856,0.03712 -0.32413,0.164025 -0.52983,0.282001 -0.20572,0.117975 -0.48622,0.272843 -0.62335,0.344154 -0.13714,0.07131 -0.40361,0.226344 -0.59217,0.344522 -0.18856,0.118175 -0.45504,0.271367 -0.59217,0.340421 -0.13714,0.06906 -0.43166,0.240655 -0.6545,0.381326 -0.22284,0.140674 -0.48932,0.296042 -0.59216,0.345266 -0.10287,0.04922 -0.25715,0.130408 -0.34286,0.180411 -0.0913,0.05325 -0.31892,0.09129 -0.54951,0.09183 -0.21652,6.14e-4 -0.45496,-0.03127 -0.52983,-0.07059 -0.0749,-0.03933 -0.20629,-0.140692 -0.29198,-0.225243 -0.0857,-0.08454 -0.23113,-0.28378 -0.32317,-0.442735 -0.092,-0.158959 -0.24029,-0.415237 -0.32949,-0.569512 -0.0891,-0.154277 -0.22426,-0.384175 -0.30017,-0.510886 -0.0759,-0.12671 -0.23275,-0.393185 -0.34855,-0.592171 -0.11579,-0.198984 -0.26675,-0.473989 -0.33546,-0.611123 -0.0688,-0.137134 -0.14614,-0.263359 -0.17206,-0.280503 -0.0259,-0.01713 -0.0939,-0.129342 -0.15096,-0.249335 -0.0571,-0.119992 -0.1795,-0.346986 -0.27193,-0.50443 -0.0924,-0.157449 -0.21781,-0.356895 -0.27862,-0.443215 -0.0607,-0.08633 -0.14375,-0.315206 -0.18432,-0.508622 -0.0574,-0.274105 -0.0568,-0.416941 0.003,-0.647625 0.0546,-0.210797 0.15106,-0.364579 0.33511,-0.534443 0.14214,-0.131165 0.36586,-0.281475 0.49719,-0.33402 0.13132,-0.05254 0.23877,-0.117085 0.23877,-0.143426 0,-0.02634 0.13324,-0.10862 0.29608,-0.182842 0.16285,-0.07423 0.43633,-0.222638 0.60775,-0.329803 0.17142,-0.107163 0.42387,-0.259848 0.561,-0.3393 0.13714,-0.07945 0.37558,-0.207982 0.52984,-0.285628 0.15429,-0.07765 0.32148,-0.180138 0.37153,-0.227752 0.05,-0.04762 0.19032,-0.127908 0.31167,-0.178425 0.12135,-0.05052 0.23466,-0.11138 0.25181,-0.135257 0.0172,-0.02389 0.22182,-0.149059 0.45483,-0.278177 0.36471,-0.202095 0.4797,-0.235088 0.82617,-0.237091 0.25768,-0.0016 0.4529,0.03136 0.54253,0.09127 0.077,0.05147 0.18893,0.145787 0.24875,0.209588 0.0598,0.06379 0.17455,0.200148 0.25496,0.302998 0.0804,0.10285 0.28393,0.433674 0.45224,0.735161 0.16833,0.301487 0.37617,0.67287 0.46188,0.825291 0.0857,0.152428 0.30725,0.536885 0.49231,0.854354 0.18506,0.31747 0.39193,0.68356 0.4597,0.813537 0.0678,0.129974 0.23895,0.362942 0.38036,0.517704 0.22155,0.242435 0.32186,0.298606 0.72464,0.405752 0.25714,0.0684 0.71995,0.191983 1.02852,0.274622 0.30855,0.08264 0.74333,0.196736 0.96616,0.253543 0.22284,0.0568 0.62957,0.168517 0.90386,0.248246 0.27426,0.07973 0.67396,0.188622 0.88823,0.241982 0.21429,0.05335 0.56491,0.141416 0.77918,0.195688 0.21427,0.05427 0.61399,0.163751 0.88827,0.243282 0.27426,0.07954 0.67397,0.189407 0.88825,0.244161 0.21427,0.05475 0.56489,0.143993 0.77918,0.198307 0.21426,0.05431 0.5158,0.140232 0.67008,0.190927 0.15427,0.05069 0.52291,0.143907 0.81922,0.207135 0.29629,0.06322 0.59081,0.141961 0.6545,0.17496 0.0636,0.033 0.33564,0.108185 0.60436,0.167083 0.26871,0.05891 0.58337,0.146704 0.69925,0.19512 0.11587,0.04841 0.27885,0.08802 0.36218,0.08802 0.0833,0 0.31565,-0.084 0.51626,-0.186651 0.20062,-0.102662 0.39613,-0.212519 0.43446,-0.244128 0.0384,-0.03161 0.20664,-0.130947 0.37399,-0.22075 0.16737,-0.0898 0.4165,-0.231522 0.55364,-0.314934 0.13714,-0.08342 0.36154,-0.210557 0.49865,-0.282549 0.13716,-0.07199 0.40362,-0.22594 0.59218,-0.342116 0.18857,-0.116174 0.46906,-0.277283 0.62335,-0.358018 0.15428,-0.08073 0.50489,-0.279829 0.77917,-0.442428 0.27425,-0.162599 0.54073,-0.321889 0.59219,-0.353984 0.0514,-0.03209 0.22962,-0.135737 0.39603,-0.230321 0.1664,-0.09459 0.43288,-0.247239 0.59217,-0.339228 0.15929,-0.09199 0.47195,-0.259964 0.6948,-0.373281 0.29126,-0.148114 0.484,-0.204531 0.68566,-0.200709 0.17045,0.0032 0.37027,0.05926 0.50933,0.142787 0.12589,0.07561 0.3082,0.24097 0.40517,0.367474 0.097,0.126501 0.22542,0.328399 0.28543,0.448661 0.06,0.120259 0.19729,0.358909 0.30511,0.530326 0.1078,0.171418 0.2613,0.423871 0.34111,0.561005 0.0797,0.137134 0.20594,0.375559 0.28034,0.529838 0.0744,0.154272 0.15564,0.294526 0.18054,0.311667 0.0249,0.01713 0.12094,0.171419 0.21337,0.342836 0.0924,0.171418 0.23536,0.423868 0.31762,0.561005 0.0822,0.137131 0.22302,0.375563 0.31284,0.529835 0.0898,0.154276 0.24407,0.420751 0.34276,0.592173 0.0987,0.171416 0.25767,0.447816 0.35319,0.614219 0.0955,0.166401 0.24973,0.43288 0.34263,0.592172 0.0929,0.159291 0.2258,0.405125 0.29536,0.546302 0.0695,0.141173 0.16604,0.289533 0.21442,0.329687 0.0484,0.04016 0.1363,0.25156 0.19538,0.469794 0.0929,0.343348 0.0967,0.441425 0.0278,0.728146 -0.057,0.237783 -0.13886,0.384684 -0.28976,0.520197 -0.11567,0.103864 -0.3428,0.265818 -0.50474,0.3599 -0.16198,0.09408 -0.4207,0.234332 -0.57498,0.311668 -0.15427,0.07734 -0.29462,0.15914 -0.31188,0.181783 -0.0172,0.02266 -0.15752,0.11303 -0.31167,0.200856 -0.15417,0.08783 -0.39833,0.217363 -0.54261,0.287857 -0.14429,0.0705 -0.27716,0.152167 -0.29529,0.181492 -0.018,0.02932 -0.15253,0.113937 -0.29866,0.188025 -0.14615,0.07409 -0.42001,0.229699 -0.60858,0.345798 -0.18853,0.116097 -0.45502,0.270253 -0.59216,0.342553 -0.13714,0.07226 -0.37967,0.207474 -0.53896,0.300367 -0.1593,0.09292 -0.42576,0.247068 -0.59217,0.342608 -0.1664,0.09554 -0.43549,0.249813 -0.59794,0.342832 -0.16245,0.09302 -0.51309,0.293994 -0.77917,0.446616 -0.41558,0.238367 -0.54092,0.280017 -0.88895,0.295401 -0.22283,0.0098 -0.4753,-0.01145 -0.561,-0.04733 z m -60.0628,-4.855882 c -0.13946,-0.07058 -0.34271,-0.220312 -0.45165,-0.33272 -0.14704,-0.151716 -0.21606,-0.300075 -0.26782,-0.575698 -0.0407,-0.217239 -0.0575,-0.721703 -0.0403,-1.215763 0.0161,-0.464448 0.0616,-0.904668 0.10095,-0.978265 0.0394,-0.07359 0.1503,-0.219969 0.24647,-0.325271 0.0962,-0.1053 0.27116,-0.219074 0.38885,-0.252827 0.11769,-0.03375 0.6709,-0.06136 1.22932,-0.06136 0.75849,0 1.07158,0.02349 1.23763,0.09288 0.12225,0.05108 0.28264,0.16796 0.35642,0.259725 0.0737,0.09177 0.1682,0.225287 0.20983,0.29671 0.0515,0.08833 0.0764,0.487517 0.0779,1.248515 0.002,1.118079 0.002,1.118783 -0.16774,1.363882 -0.0935,0.134876 -0.28281,0.318709 -0.42075,0.40852 -0.24024,0.156416 -0.29282,0.164067 -1.24816,0.181657 -0.90459,0.01663 -1.0209,0.0064 -1.25088,-0.109977 z m 24.65723,-0.187175 c -0.55748,-0.03095 -0.60758,-0.04526 -0.8552,-0.244378 -0.14467,-0.11632 -0.29011,-0.298646 -0.32322,-0.405166 -0.0332,-0.106523 -0.09,-0.482291 -0.12655,-0.83504 -0.0365,-0.352749 -0.0664,-0.979564 -0.0664,-1.392916 0,-0.503 0.0332,-0.868104 0.10026,-1.103981 0.0595,-0.209029 0.17883,-0.435105 0.29333,-0.55562 0.10618,-0.11176 0.29248,-0.230816 0.41398,-0.26457 0.12151,-0.03375 0.92506,-0.06153 1.78565,-0.06173 1.52206,-2.51e-4 1.57039,0.0035 1.77387,0.140616 0.11504,0.07753 0.30151,0.262035 0.41438,0.410015 0.20522,0.269051 0.20522,0.269051 0.20522,1.863824 0,1.577591 -0.002,1.597565 -0.15189,1.85396 -0.0835,0.142554 -0.26157,0.335186 -0.39562,0.42808 -0.24029,0.166527 -0.25937,0.169112 -1.35969,0.18434 -0.61379,0.0084 -1.38247,6.15e-4 -1.70815,-0.01744 z m -20.74,-5.672273 c -0.11056,-0.02628 -0.26568,-0.09013 -0.3447,-0.141914 -0.0791,-0.05179 -0.227,-0.2144 -0.32883,-0.361375 -0.18513,-0.267224 -0.18513,-0.267224 -0.18513,-2.329476 0,-2.062249 0,-2.062249 0.18697,-2.33399 0.11459,-0.166557 0.30762,-0.335457 0.49867,-0.436337 0.31171,-0.164591 0.31171,-0.164591 2.21289,-0.164591 1.84344,0 1.90995,0.0043 2.19019,0.140038 0.15897,0.07702 0.36935,0.240374 0.4675,0.363001 0.0982,0.122627 0.19791,0.326087 0.22165,0.45213 0.0238,0.126044 0.044,1.014579 0.0452,1.974514 0.002,0.982336 -0.026,1.867973 -0.0622,2.02585 -0.0412,0.180364 -0.14429,0.362845 -0.28859,0.511152 -0.16096,0.165436 -0.31067,0.249148 -0.52952,0.296087 -0.17743,0.03805 -1.05383,0.06277 -2.09415,0.05905 -0.98396,-0.0035 -1.87949,-0.02789 -1.99005,-0.05413 z m 25.22803,-2.192613 c -0.18857,-0.03075 -0.68636,-0.09198 -1.1062,-0.13609 -0.67552,-0.07096 -0.7932,-0.101291 -1.02263,-0.263578 -0.1426,-0.10086 -0.31802,-0.263033 -0.38982,-0.360384 -0.11507,-0.156014 -0.12885,-0.252107 -0.11626,-0.81034 0.008,-0.348336 0.043,-0.944737 0.0779,-1.325337 0.035,-0.380598 0.0895,-0.773301 0.12117,-0.872672 0.0316,-0.09937 0.0756,-0.289688 0.0979,-0.422926 0.0294,-0.176607 0.11685,-0.315497 0.32252,-0.512562 0.17611,-0.168734 0.36445,-0.285753 0.50119,-0.311406 0.12047,-0.0226 0.76993,-0.0081 1.44322,0.03215 0.94974,0.05683 1.27308,0.05645 1.44233,-0.0016 0.11999,-0.04117 0.30552,-0.147569 0.41228,-0.236428 0.10676,-0.08886 0.28515,-0.231683 0.39643,-0.317388 0.11127,-0.08571 0.30835,-0.239988 0.43796,-0.342839 0.12963,-0.102847 0.32572,-0.257126 0.43578,-0.342835 0.11006,-0.08571 0.28451,-0.225959 0.38771,-0.311668 0.10317,-0.08571 0.30371,-0.263924 0.44564,-0.396034 0.14193,-0.132108 0.36868,-0.314436 0.5039,-0.405167 0.13522,-0.09074 0.3065,-0.221074 0.38065,-0.289642 0.0741,-0.06857 0.20194,-0.173744 0.28398,-0.233727 0.0821,-0.05998 0.36491,-0.284384 0.62857,-0.49867 0.26364,-0.214286 0.58066,-0.459735 0.70449,-0.545444 0.12381,-0.08571 0.3008,-0.216659 0.39331,-0.291004 0.0925,-0.07435 0.35585,-0.29208 0.58521,-0.483854 0.22939,-0.191774 0.47771,-0.433864 0.55186,-0.537977 0.11138,-0.156425 0.1488,-0.348471 0.21537,-1.1056636 0.0443,-0.5039945 0.12497,-1.2108837 0.17926,-1.570858 0.0543,-0.3599792 0.12374,-0.9142631 0.15433,-1.2317466 0.0464,-0.4814741 0.0854,-0.6202109 0.23504,-0.8362708 0.0987,-0.1424682 0.26359,-0.3127558 0.36644,-0.3784181 0.17137,-0.1093966 0.27042,-0.1162125 1.18435,-0.081486 0.54853,0.020844 1.22175,0.079847 1.49601,0.1311197 0.27426,0.051272 0.97059,0.1347115 1.5474,0.1854209 0.91865,0.080768 1.0827,0.1121173 1.32277,0.2528038 0.15072,0.088334 0.3618,0.2776327 0.46908,0.4206655 0.19502,0.2600649 0.19502,0.2600649 0.1566,1.0244861 -0.0212,0.4204289 -0.0777,0.9533834 -0.12563,1.1843409 -0.0479,0.2309584 -0.11795,0.8406744 -0.15553,1.3549262 -0.0375,0.514254 -0.0839,1.047211 -0.103,1.184344 -0.0191,0.137131 -0.0894,0.417635 -0.15623,0.623333 -0.0892,0.274446 -0.18405,0.425873 -0.35633,0.568843 -0.13454,0.11167 -0.34462,0.213395 -0.49208,0.238308 -0.14151,0.02392 -0.64544,0.01121 -1.11983,-0.02822 -0.47442,-0.03942 -1.0589,-0.112979 -1.29889,-0.163469 -0.23998,-0.05049 -0.85707,-0.107691 -1.37135,-0.12712 -0.935,-0.03533 -0.935,-0.03533 -1.17155,0.143325 -0.13012,0.09826 -0.43867,0.341992 -0.68566,0.541624 -0.24705,0.199635 -0.51926,0.417433 -0.60496,0.483999 -0.0857,0.06657 -0.47842,0.376618 -0.87267,0.689001 -0.39428,0.312387 -0.7449,0.599989 -0.77918,0.639118 -0.0343,0.03913 -0.2731,0.228524 -0.5307,0.420881 -0.25761,0.19236 -0.69241,0.536933 -0.9662,0.765723 -0.27377,0.22879 -0.56792,0.471157 -0.6536,0.538594 -0.0858,0.06744 -0.35769,0.290382 -0.60437,0.495432 -0.2467,0.205049 -0.47387,0.372815 -0.5048,0.372815 -0.0309,0 -0.1035,0.146286 -0.16124,0.325083 -0.0577,0.178792 -0.14365,0.550457 -0.19093,0.825919 -0.0473,0.275466 -0.1057,0.74514 -0.12981,1.043722 -0.0373,0.462885 -0.0707,0.579276 -0.22552,0.7899 -0.0999,0.135864 -0.30506,0.319331 -0.45586,0.407711 -0.23221,0.136082 -0.3441,0.159498 -0.7306,0.152912 -0.25103,-0.0043 -0.61069,-0.03293 -0.79925,-0.06368 z M 423.1214,16.535575 c -0.35998,-0.0292 -0.86488,-0.09362 -1.122,-0.143182 -0.25713,-0.04955 -0.70595,-0.107609 -0.99734,-0.128996 -0.29142,-0.02137 -0.7908,-0.06583 -1.10979,-0.09877 -0.39661,-0.04095 -0.67399,-0.107542 -0.87749,-0.210667 -0.16366,-0.08293 -0.37953,-0.257954 -0.47975,-0.388938 -0.17777,-0.232413 -0.18206,-0.255423 -0.17759,-0.954992 0.002,-0.394258 0.0374,-0.829037 0.0777,-0.966172 0.0403,-0.137134 0.1173,-0.782288 0.17132,-1.433675 0.054,-0.651386 0.15348,-1.436793 0.22108,-1.745345 0.10658,-0.486617 0.15421,-0.592569 0.35916,-0.799053 0.15116,-0.152305 0.32801,-0.258662 0.491,-0.295278 0.16833,-0.03783 0.62107,-0.02711 1.33495,0.03157 0.59415,0.04884 1.34387,0.13484 1.66607,0.191106 0.3222,0.05626 0.85609,0.107104 1.18641,0.112972 0.55372,0.0098 0.61636,-0.0016 0.80274,-0.14516 0.11119,-0.08571 0.37673,-0.296793 0.5901,-0.469073 0.21338,-0.172283 0.44823,-0.354606 0.5219,-0.405168 0.0736,-0.05056 0.57859,-0.447847 1.12201,-0.88286 0.54343,-0.435008 1.05818,-0.84943 1.14389,-0.920936 0.0857,-0.0715 0.35606,-0.290618 0.6008,-0.486917 0.24473,-0.196297 0.52523,-0.4196094 0.62333,-0.4962544 0.0981,-0.076646 0.51498,-0.4083074 0.92639,-0.7370316 0.41142,-0.3287301 0.78067,-0.6594554 0.82059,-0.7349491 0.0399,-0.075492 0.11511,-0.3048274 0.16706,-0.5096387 0.052,-0.2048103 0.12657,-0.7510562 0.16582,-1.2138838 0.0625,-0.7357474 0.0916,-0.871101 0.23221,-1.0769773 0.0885,-0.1295038 0.27421,-0.3188462 0.41279,-0.4207509 0.21956,-0.1614756 0.30443,-0.185127 0.66041,-0.1840736 0.22465,6.14e-4 0.68896,0.043958 1.03181,0.0962 0.34282,0.052242 0.86166,0.1221264 1.15294,0.155295 0.29131,0.033173 0.58583,0.07782 0.65451,0.099215 0.0687,0.021397 0.22306,0.1235172 0.34305,0.226936 0.12,0.1034187 0.25688,0.2591405 0.30418,0.3460496 0.0546,0.1003421 0.0846,0.3466578 0.0822,0.6749088 -0.002,0.2842934 -0.0356,0.8470819 -0.0745,1.2506335 -0.0389,0.4035603 -0.12558,0.9581449 -0.19274,1.2324129 -0.10231,0.4178381 -0.16251,0.5390837 -0.37144,0.7480047 -0.24934,0.2493329 -0.24934,0.2493329 -1.13613,0.2393889 -0.48773,-0.0055 -1.10447,-0.05056 -1.37052,-0.1002097 -0.4706,-0.08781 -0.49223,-0.086336 -0.79497,0.05393 -0.17117,0.0793 -0.42852,0.236596 -0.57189,0.349548 -0.14337,0.112942 -0.30758,0.24743 -0.36489,0.298855 -0.0573,0.05143 -0.23662,0.191676 -0.39848,0.311668 -0.16185,0.119993 -0.35324,0.28128 -0.42533,0.35842 -0.0721,0.07713 -0.16301,0.140251 -0.20206,0.140251 -0.0391,0 -0.13045,0.06311 -0.20308,0.140254 -0.0727,0.07713 -0.33716,0.300737 -0.58782,0.4968857 -0.25067,0.196149 -0.65213,0.513616 -0.89212,0.705483 -0.23998,0.191865 -0.53095,0.424081 -0.6466,0.516032 -0.11566,0.09195 -0.38707,0.314454 -0.60316,0.494444 -0.21609,0.179986 -0.41366,0.327249 -0.43903,0.327249 -0.0254,0 -0.11863,0.06874 -0.20719,0.152747 -0.0886,0.08401 -0.34335,0.304247 -0.56619,0.489414 -0.2492,0.207069 -0.45621,0.442209 -0.53775,0.610843 -0.10421,0.215485 -0.14825,0.487622 -0.20578,1.271343 -0.0403,0.548443 -0.10179,1.12347 -0.13677,1.277842 -0.035,0.154366 -0.0994,0.623583 -0.14308,1.042699 -0.0675,0.647159 -0.10429,0.797493 -0.24389,0.997339 -0.0904,0.129424 -0.25601,0.295444 -0.36798,0.368932 -0.11198,0.07349 -0.32983,0.147011 -0.4841,0.163382 -0.15429,0.01636 -0.57503,0.0059 -0.935,-0.02331 z m 34.98294,-1.084256 c -0.11488,-0.04991 -1.08446,-0.968607 -2.21265,-2.096526 -1.1045,-1.104228 -2.0854,-2.10486 -2.17979,-2.223637 -0.1515,-0.190647 -0.17161,-0.268732 -0.17161,-0.666314 0,-0.409051 0.0176,-0.4725 0.19177,-0.691691 0.10548,-0.132732 1.11086,-1.158318 2.23418,-2.279077 1.7598,-1.7558491 2.07444,-2.0437712 2.27426,-2.08126 0.12756,-0.023919 0.3548,-0.029661 0.50497,-0.012745 0.17958,0.020262 0.35805,0.098091 0.52132,0.2274084 0.13655,0.1081434 1.12024,1.0670496 2.18597,2.1308976 1.39314,1.390696 1.98127,2.020295 2.0928,2.240375 0.0854,0.168356 0.15512,0.37165 0.15512,0.451767 0,0.08012 -0.0693,0.284416 -0.15374,0.453994 -0.11288,0.226365 -0.69213,0.846815 -2.17919,2.334168 -1.17675,1.176994 -2.13505,2.084617 -2.28707,2.166102 -0.15343,0.08225 -0.36715,0.139244 -0.51675,0.137809 -0.14033,-0.0012 -0.34713,-0.04242 -0.45959,-0.09128 z"
       id="path373" />
  </g>
</svg>
